<?xml version="1.0" encoding="utf-8" ?>
<svg baseProfile="full" height="2240" version="1.1" width="1280" xmlns="http://www.w3.org/2000/svg" xmlns:ev="http://www.w3.org/2001/xml-events" xmlns:xlink="http://www.w3.org/1999/xlink"><defs /><text fill="#000000" font-family="Noto Sans JP" font-size="60" font-weight="normal" text-anchor="start" x="486.0" y="60">田</text><text fill="#000000" font-family="Noto Sans JP" font-size="60" font-weight="normal" text-anchor="end" x="794.0" y="60">郎</text><text fill="#000000" font-family="Noto Sans JP" font-size="60" font-weight="normal" text-anchor="middle" x="588.6666666666666" y="60">中</text><text fill="#000000" font-family="Noto Sans JP" font-size="60" font-weight="normal" text-anchor="middle" x="691.3333333333334" y="60">一</text><text fill="#000000" font-family="Noto Sans JP" font-size="60" font-weight="normal" text-anchor="start" x="486.0" y="140">鈴</text><text fill="#000000" font-family="Noto Sans JP" font-size="60" font-weight="normal" text-anchor="start" x="568.6666666666666" y="140">木</text><text fill="#000000" font-family="Noto Sans JP" font-size="60" font-weight="normal" text-anchor="start" x="651.3333333333333" y="140">次</text><text fill="#000000" font-family="Noto Sans JP" font-size="60" font-weight="normal" text-anchor="start" x="733.9999999999999" y="140">郎</text><text fill="#000000" font-family="Noto Sans JP" font-size="60" font-weight="normal" text-anchor="start" x="486.0" y="220">乾</text><text fill="#000000" font-family="Noto Sans JP" font-size="60" font-weight="normal" text-anchor="end" x="794.0" y="220">平</text><text fill="#000000" font-family="Noto Sans JP" font-size="60" font-weight="normal" text-anchor="start" x="640.0" y="220">三</text><text fill="#000000" font-family="Noto Sans JP" font-size="60" font-weight="normal" text-anchor="start" x="486.0" y="340">四</text><text fill="#000000" font-family="Noto Sans JP" font-size="60" font-weight="normal" text-anchor="end" x="794.0" y="340">保</text><text fill="#000000" font-family="Noto Sans JP" font-size="60" font-weight="normal" text-anchor="end" x="640.0" y="340">条</text><text fill="#000000" font-family="Noto Sans JP" font-size="60" font-weight="normal" text-anchor="start" x="486.0" y="420">吾</text><text fill="#000000" font-family="Noto Sans JP" font-size="60" font-weight="normal" text-anchor="end" x="794.0" y="420">丸</text><text fill="#000000" font-family="Noto Sans JP" font-size="60" font-weight="normal" text-anchor="middle" x="640.0" y="420">郎</text><text fill="#000000" font-family="Noto Sans JP" font-size="60" font-weight="normal" text-anchor="start" x="486.0" y="500">清</text><text fill="#000000" font-family="Noto Sans JP" font-size="60" font-weight="normal" text-anchor="end" x="794.0" y="500">六</text><text fill="#000000" font-family="Noto Sans JP" font-size="60" font-weight="normal" text-anchor="start" x="486.0" y="580">n</text><text fill="#000000" font-family="Noto Sans JP" font-size="60" font-weight="normal" text-anchor="start" x="577.6666666666666" y="580">a</text><text fill="#000000" font-family="Noto Sans JP" font-size="60" font-weight="normal" text-anchor="start" x="666.3333333333333" y="580">n</text><text fill="#000000" font-family="Noto Sans JP" font-size="60" font-weight="normal" text-anchor="start" x="757.9999999999999" y="580">a</text><text fill="#000000" font-family="Noto Sans JP" font-size="60" font-weight="normal" text-anchor="start" x="486.0" y="700">八ノ戸　力</text><text fill="#000000" font-family="Noto Sans JP" font-size="60" font-weight="normal" text-anchor="start" x="486.0" y="780">万　久太郎</text><text fill="#000000" font-family="Noto Sans JP" font-size="60" font-weight="normal" text-anchor="middle" x="640.0" y="860">Ⅹ</text><text fill="#000000" font-family="Noto Sans JP" font-size="60" font-weight="normal" text-anchor="start" x="486.0" y="940">一</text><text fill="#000000" font-family="Noto Sans JP" font-size="60" font-weight="normal" text-anchor="start" x="548.0" y="940">二</text><text fill="#000000" font-family="Noto Sans JP" font-size="60" font-weight="normal" text-anchor="start" x="610.0" y="940">三</text><text fill="#000000" font-family="Noto Sans JP" font-size="60" font-weight="normal" text-anchor="start" x="672.0" y="940">十</text><text fill="#000000" font-family="Noto Sans JP" font-size="60" font-weight="normal" text-anchor="start" x="734.0" y="940">一</text><g transform="translate(485.6095890410959, 1060) scale(0.8438356164383561, 1) translate(-0.8438356164383561, -1060)"><text fill="#000000" font-family="Noto Sans JP" font-size="60" font-weight="normal" text-anchor="start" x="0" y="1060">１</text></g><g transform="translate(537.2397260273973, 1060) scale(0.8438356164383561, 1) translate(-0.8438356164383561, -1060)"><text fill="#000000" font-family="Noto Sans JP" font-size="60" font-weight="normal" text-anchor="start" x="0" y="1060">２</text></g><g transform="translate(588.8698630136987, 1060) scale(0.8438356164383561, 1) translate(-0.8438356164383561, -1060)"><text fill="#000000" font-family="Noto Sans JP" font-size="60" font-weight="normal" text-anchor="start" x="0" y="1060">イ</text></g><g transform="translate(640.5000000000001, 1060) scale(0.8438356164383561, 1) translate(-0.8438356164383561, -1060)"><text fill="#000000" font-family="Noto Sans JP" font-size="60" font-weight="normal" text-anchor="start" x="0" y="1060">エ</text></g><g transform="translate(692.1301369863015, 1060) scale(0.8438356164383561, 1) translate(-0.8438356164383561, -1060)"><text fill="#000000" font-family="Noto Sans JP" font-size="60" font-weight="normal" text-anchor="start" x="0" y="1060">モ</text></g><g transform="translate(743.7602739726029, 1060) scale(0.8438356164383561, 1) translate(-0.8438356164383561, -1060)"><text fill="#000000" font-family="Noto Sans JP" font-size="60" font-weight="normal" text-anchor="start" x="0" y="1060">ン</text></g><g transform="translate(485.169014084507, 1140) scale(0.7230046948356808, 1) translate(-0.7230046948356808, -1140)"><text fill="#000000" font-family="Noto Sans JP" font-size="60" font-weight="normal" text-anchor="start" x="0" y="1140">１</text></g><g transform="translate(529.5492957746478, 1140) scale(0.7230046948356808, 1) translate(-0.7230046948356808, -1140)"><text fill="#000000" font-family="Noto Sans JP" font-size="60" font-weight="normal" text-anchor="start" x="0" y="1140">３</text></g><g transform="translate(573.9295774647886, 1140) scale(0.7230046948356808, 1) translate(-0.7230046948356808, -1140)"><text fill="#000000" font-family="Noto Sans JP" font-size="60" font-weight="normal" text-anchor="start" x="0" y="1140">日</text></g><g transform="translate(618.3098591549294, 1140) scale(0.7230046948356808, 1) translate(-0.7230046948356808, -1140)"><text fill="#000000" font-family="Noto Sans JP" font-size="60" font-weight="normal" text-anchor="start" x="0" y="1140">の</text></g><g transform="translate(662.6901408450702, 1140) scale(0.7230046948356808, 1) translate(-0.7230046948356808, -1140)"><text fill="#000000" font-family="Noto Sans JP" font-size="60" font-weight="normal" text-anchor="start" x="0" y="1140">金</text></g><g transform="translate(707.070422535211, 1140) scale(0.7230046948356808, 1) translate(-0.7230046948356808, -1140)"><text fill="#000000" font-family="Noto Sans JP" font-size="60" font-weight="normal" text-anchor="start" x="0" y="1140">曜</text></g><g transform="translate(751.4507042253518, 1140) scale(0.7230046948356808, 1) translate(-0.7230046948356808, -1140)"><text fill="#000000" font-family="Noto Sans JP" font-size="60" font-weight="normal" text-anchor="start" x="0" y="1140">日</text></g><g transform="translate(484.7135523613963, 1220) scale(0.6324435318275154, 1) translate(-0.6324435318275154, -1220)"><text fill="#000000" font-family="Noto Sans JP" font-size="60" font-weight="normal" text-anchor="start" x="0" y="1220">１</text></g><g transform="translate(523.6601642710473, 1220) scale(0.6324435318275154, 1) translate(-0.6324435318275154, -1220)"><text fill="#000000" font-family="Noto Sans JP" font-size="60" font-weight="normal" text-anchor="start" x="0" y="1220">４</text></g><g transform="translate(562.6067761806983, 1220) scale(0.6324435318275154, 1) translate(-0.6324435318275154, -1220)"><text fill="#000000" font-family="Noto Sans JP" font-size="60" font-weight="normal" text-anchor="start" x="0" y="1220">日</text></g><g transform="translate(601.5533880903492, 1220) scale(0.6324435318275154, 1) translate(-0.6324435318275154, -1220)"><text fill="#000000" font-family="Noto Sans JP" font-size="60" font-weight="normal" text-anchor="start" x="0" y="1220">の</text></g><g transform="translate(640.5000000000002, 1220) scale(0.6324435318275154, 1) translate(-0.6324435318275154, -1220)"><text fill="#000000" font-family="Noto Sans JP" font-size="60" font-weight="normal" text-anchor="start" x="0" y="1220">土</text></g><g transform="translate(679.4466119096512, 1220) scale(0.6324435318275154, 1) translate(-0.6324435318275154, -1220)"><text fill="#000000" font-family="Noto Sans JP" font-size="60" font-weight="normal" text-anchor="start" x="0" y="1220">曜</text></g><g transform="translate(718.3932238193022, 1220) scale(0.6324435318275154, 1) translate(-0.6324435318275154, -1220)"><text fill="#000000" font-family="Noto Sans JP" font-size="60" font-weight="normal" text-anchor="start" x="0" y="1220">午</text></g><g transform="translate(757.3398357289532, 1220) scale(0.6324435318275154, 1) translate(-0.6324435318275154, -1220)"><text fill="#000000" font-family="Noto Sans JP" font-size="60" font-weight="normal" text-anchor="start" x="0" y="1220">後</text></g><g transform="translate(484.24817518248176, 1300) scale(0.5620437956204379, 1) translate(-0.5620437956204379, -1300)"><text fill="#000000" font-family="Noto Sans JP" font-size="60" font-weight="normal" text-anchor="start" x="0" y="1300">１</text></g><g transform="translate(518.970802919708, 1300) scale(0.5620437956204379, 1) translate(-0.5620437956204379, -1300)"><text fill="#000000" font-family="Noto Sans JP" font-size="60" font-weight="normal" text-anchor="start" x="0" y="1300">５</text></g><g transform="translate(553.6934306569343, 1300) scale(0.5620437956204379, 1) translate(-0.5620437956204379, -1300)"><text fill="#000000" font-family="Noto Sans JP" font-size="60" font-weight="normal" text-anchor="start" x="0" y="1300">日</text></g><g transform="translate(588.4160583941606, 1300) scale(0.5620437956204379, 1) translate(-0.5620437956204379, -1300)"><text fill="#000000" font-family="Noto Sans JP" font-size="60" font-weight="normal" text-anchor="start" x="0" y="1300">の</text></g><g transform="translate(623.1386861313869, 1300) scale(0.5620437956204379, 1) translate(-0.5620437956204379, -1300)"><text fill="#000000" font-family="Noto Sans JP" font-size="60" font-weight="normal" text-anchor="start" x="0" y="1300">日</text></g><g transform="translate(657.8613138686131, 1300) scale(0.5620437956204379, 1) translate(-0.5620437956204379, -1300)"><text fill="#000000" font-family="Noto Sans JP" font-size="60" font-weight="normal" text-anchor="start" x="0" y="1300">曜</text></g><g transform="translate(692.5839416058394, 1300) scale(0.5620437956204379, 1) translate(-0.5620437956204379, -1300)"><text fill="#000000" font-family="Noto Sans JP" font-size="60" font-weight="normal" text-anchor="start" x="0" y="1300">日</text></g><g transform="translate(727.3065693430657, 1300) scale(0.5620437956204379, 1) translate(-0.5620437956204379, -1300)"><text fill="#000000" font-family="Noto Sans JP" font-size="60" font-weight="normal" text-anchor="start" x="0" y="1300">深</text></g><g transform="translate(762.029197080292, 1300) scale(0.5620437956204379, 1) translate(-0.5620437956204379, -1300)"><text fill="#000000" font-family="Noto Sans JP" font-size="60" font-weight="normal" text-anchor="start" x="0" y="1300">夜</text></g><g transform="translate(483.2985074626866, 1420) scale(0.4597014925373134, 1) translate(-0.4597014925373134, -1420)"><text fill="#000000" font-family="Noto Sans JP" font-size="60" font-weight="normal" text-anchor="start" x="0" y="1420">東</text></g><g transform="translate(511.8805970149254, 1420) scale(0.4597014925373134, 1) translate(-0.4597014925373134, -1420)"><text fill="#000000" font-family="Noto Sans JP" font-size="60" font-weight="normal" text-anchor="start" x="0" y="1420">京</text></g><g transform="translate(540.4626865671642, 1420) scale(0.4597014925373134, 1) translate(-0.4597014925373134, -1420)"><text fill="#000000" font-family="Noto Sans JP" font-size="60" font-weight="normal" text-anchor="start" x="0" y="1420">都</text></g><g transform="translate(569.044776119403, 1420) scale(0.4597014925373134, 1) translate(-0.4597014925373134, -1420)"><text fill="#000000" font-family="Noto Sans JP" font-size="60" font-weight="normal" text-anchor="start" x="0" y="1420">渋</text></g><g transform="translate(597.6268656716418, 1420) scale(0.4597014925373134, 1) translate(-0.4597014925373134, -1420)"><text fill="#000000" font-family="Noto Sans JP" font-size="60" font-weight="normal" text-anchor="start" x="0" y="1420">谷</text></g><g transform="translate(626.2089552238806, 1420) scale(0.4597014925373134, 1) translate(-0.4597014925373134, -1420)"><text fill="#000000" font-family="Noto Sans JP" font-size="60" font-weight="normal" text-anchor="start" x="0" y="1420">区</text></g><g transform="translate(654.7910447761194, 1420) scale(0.4597014925373134, 1) translate(-0.4597014925373134, -1420)"><text fill="#000000" font-family="Noto Sans JP" font-size="60" font-weight="normal" text-anchor="start" x="0" y="1420">渋</text></g><g transform="translate(683.3731343283582, 1420) scale(0.4597014925373134, 1) translate(-0.4597014925373134, -1420)"><text fill="#000000" font-family="Noto Sans JP" font-size="60" font-weight="normal" text-anchor="start" x="0" y="1420">谷</text></g><g transform="translate(711.955223880597, 1420) scale(0.4597014925373134, 1) translate(-0.4597014925373134, -1420)"><text fill="#000000" font-family="Noto Sans JP" font-size="60" font-weight="normal" text-anchor="start" x="0" y="1420">町</text></g><g transform="translate(740.5373134328358, 1420) scale(0.4597014925373134, 1) translate(-0.4597014925373134, -1420)"><text fill="#000000" font-family="Noto Sans JP" font-size="60" font-weight="normal" text-anchor="start" x="0" y="1420">渋</text></g><g transform="translate(769.1194029850747, 1420) scale(0.4597014925373134, 1) translate(-0.4597014925373134, -1420)"><text fill="#000000" font-family="Noto Sans JP" font-size="60" font-weight="normal" text-anchor="start" x="0" y="1420">谷</text></g><text fill="#000000" font-family="Noto Sans JP" font-size="60" font-weight="normal" text-anchor="start" x="486.0" y="1500">M</text><text fill="#000000" font-family="Noto Sans JP" font-size="60" font-weight="normal" text-anchor="end" x="794.0" y="1500">c</text><text fill="#000000" font-family="Noto Sans JP" font-size="60" font-weight="normal" text-anchor="middle" x="640.0" y="1500">a</text><text fill="#000000" font-family="Noto Sans JP" font-size="60" font-weight="normal" text-anchor="start" x="486.0" y="1580">L</text><text fill="#000000" font-family="Noto Sans JP" font-size="60" font-weight="normal" text-anchor="start" x="556.75" y="1580">i</text><text fill="#000000" font-family="Noto Sans JP" font-size="60" font-weight="normal" text-anchor="start" x="610.5" y="1580">n</text><text fill="#000000" font-family="Noto Sans JP" font-size="60" font-weight="normal" text-anchor="start" x="684.25" y="1580">u</text><text fill="#000000" font-family="Noto Sans JP" font-size="60" font-weight="normal" text-anchor="start" x="758.0" y="1580">x</text><g transform="translate(486.2765957446809, 1660) scale(1.0921985815602837, 1) translate(-1.0921985815602837, -1660)"><text fill="#000000" font-family="Noto Sans JP" font-size="60" font-weight="normal" text-anchor="start" x="0" y="1660">W</text></g><g transform="translate(548.4397163120568, 1660) scale(1.0921985815602837, 1) translate(-1.0921985815602837, -1660)"><text fill="#000000" font-family="Noto Sans JP" font-size="60" font-weight="normal" text-anchor="start" x="0" y="1660">i</text></g><g transform="translate(570.1914893617022, 1660) scale(1.0921985815602837, 1) translate(-1.0921985815602837, -1660)"><text fill="#000000" font-family="Noto Sans JP" font-size="60" font-weight="normal" text-anchor="start" x="0" y="1660">n</text></g><g transform="translate(613.7872340425533, 1660) scale(1.0921985815602837, 1) translate(-1.0921985815602837, -1660)"><text fill="#000000" font-family="Noto Sans JP" font-size="60" font-weight="normal" text-anchor="start" x="0" y="1660">d</text></g><g transform="translate(657.3829787234044, 1660) scale(1.0921985815602837, 1) translate(-1.0921985815602837, -1660)"><text fill="#000000" font-family="Noto Sans JP" font-size="60" font-weight="normal" text-anchor="start" x="0" y="1660">o</text></g><g transform="translate(699.8865248226953, 1660) scale(1.0921985815602837, 1) translate(-1.0921985815602837, -1660)"><text fill="#000000" font-family="Noto Sans JP" font-size="60" font-weight="normal" text-anchor="start" x="0" y="1660">w</text></g><g transform="translate(759.8652482269506, 1660) scale(1.0921985815602837, 1) translate(-1.0921985815602837, -1660)"><text fill="#000000" font-family="Noto Sans JP" font-size="60" font-weight="normal" text-anchor="start" x="0" y="1660">s</text></g><g transform="translate(484.4841628959276, 1780) scale(0.6968325791855203, 1) translate(-0.6968325791855203, -1780)"><text fill="#000000" font-family="Noto Sans JP" font-size="60" font-weight="normal" text-anchor="start" x="0" y="1780">F</text></g><g transform="translate(510.57013574660635, 1780) scale(0.6968325791855203, 1) translate(-0.6968325791855203, -1780)"><text fill="#000000" font-family="Noto Sans JP" font-size="60" font-weight="normal" text-anchor="start" x="0" y="1780">a</text></g><g transform="translate(536.6561085972851, 1780) scale(0.6968325791855203, 1) translate(-0.6968325791855203, -1780)"><text fill="#000000" font-family="Noto Sans JP" font-size="60" font-weight="normal" text-anchor="start" x="0" y="1780">m</text></g><g transform="translate(578.7692307692308, 1780) scale(0.6968325791855203, 1) translate(-0.6968325791855203, -1780)"><text fill="#000000" font-family="Noto Sans JP" font-size="60" font-weight="normal" text-anchor="start" x="0" y="1780">i</text></g><g transform="translate(593.0090497737557, 1780) scale(0.6968325791855203, 1) translate(-0.6968325791855203, -1780)"><text fill="#000000" font-family="Noto Sans JP" font-size="60" font-weight="normal" text-anchor="start" x="0" y="1780">c</text></g><g transform="translate(616.3076923076924, 1780) scale(0.6968325791855203, 1) translate(-0.6968325791855203, -1780)"><text fill="#000000" font-family="Noto Sans JP" font-size="60" font-weight="normal" text-anchor="start" x="0" y="1780">o</text></g><g transform="translate(643.7873303167421, 1780) scale(0.6968325791855203, 1) translate(-0.6968325791855203, -1780)"><text fill="#000000" font-family="Noto Sans JP" font-size="60" font-weight="normal" text-anchor="start" x="0" y="1780">m</text></g><g transform="translate(685.9004524886878, 1780) scale(0.6968325791855203, 1) translate(-0.6968325791855203, -1780)"><text fill="#000000" font-family="Noto Sans JP" font-size="60" font-weight="normal" text-anchor="start" x="0" y="1780"> </text></g><g transform="translate(710.5927601809956, 1780) scale(0.6968325791855203, 1) translate(-0.6968325791855203, -1780)"><text fill="#000000" font-family="Noto Sans JP" font-size="60" font-weight="normal" text-anchor="start" x="0" y="1780">G</text></g><g transform="translate(742.2533936651585, 1780) scale(0.6968325791855203, 1) translate(-0.6968325791855203, -1780)"><text fill="#000000" font-family="Noto Sans JP" font-size="60" font-weight="normal" text-anchor="start" x="0" y="1780">u</text></g><g transform="translate(770.4298642533937, 1780) scale(0.6968325791855203, 1) translate(-0.6968325791855203, -1780)"><text fill="#000000" font-family="Noto Sans JP" font-size="60" font-weight="normal" text-anchor="start" x="0" y="1780">y</text></g><g transform="translate(483.37984496124034, 1860) scale(0.5968992248062015, 1) translate(-0.5968992248062015, -1860)"><text fill="#000000" font-family="Noto Sans JP" font-size="60" font-weight="normal" text-anchor="start" x="0" y="1860">M</text></g><g transform="translate(516.015503875969, 1860) scale(0.5968992248062015, 1) translate(-0.5968992248062015, -1860)"><text fill="#000000" font-family="Noto Sans JP" font-size="60" font-weight="normal" text-anchor="start" x="0" y="1860">i</text></g><g transform="translate(528.3565891472869, 1860) scale(0.5968992248062015, 1) translate(-0.5968992248062015, -1860)"><text fill="#000000" font-family="Noto Sans JP" font-size="60" font-weight="normal" text-anchor="start" x="0" y="1860">c</text></g><g transform="translate(548.4573643410853, 1860) scale(0.5968992248062015, 1) translate(-0.5968992248062015, -1860)"><text fill="#000000" font-family="Noto Sans JP" font-size="60" font-weight="normal" text-anchor="start" x="0" y="1860">h</text></g><g transform="translate(572.7364341085272, 1860) scale(0.5968992248062015, 1) translate(-0.5968992248062015, -1860)"><text fill="#000000" font-family="Noto Sans JP" font-size="60" font-weight="normal" text-anchor="start" x="0" y="1860">a</text></g><g transform="translate(595.2248062015505, 1860) scale(0.5968992248062015, 1) translate(-0.5968992248062015, -1860)"><text fill="#000000" font-family="Noto Sans JP" font-size="60" font-weight="normal" text-anchor="start" x="0" y="1860">e</text></g><g transform="translate(617.7131782945737, 1860) scale(0.5968992248062015, 1) translate(-0.5968992248062015, -1860)"><text fill="#000000" font-family="Noto Sans JP" font-size="60" font-weight="normal" text-anchor="start" x="0" y="1860">l</text></g><g transform="translate(630.6511627906978, 1860) scale(0.5968992248062015, 1) translate(-0.5968992248062015, -1860)"><text fill="#000000" font-family="Noto Sans JP" font-size="60" font-weight="normal" text-anchor="start" x="0" y="1860"> </text></g><g transform="translate(651.9457364341087, 1860) scale(0.5968992248062015, 1) translate(-0.5968992248062015, -1860)"><text fill="#000000" font-family="Noto Sans JP" font-size="60" font-weight="normal" text-anchor="start" x="0" y="1860">L</text></g><g transform="translate(674.4341085271319, 1860) scale(0.5968992248062015, 1) translate(-0.5968992248062015, -1860)"><text fill="#000000" font-family="Noto Sans JP" font-size="60" font-weight="normal" text-anchor="start" x="0" y="1860">a</text></g><g transform="translate(696.9224806201552, 1860) scale(0.5968992248062015, 1) translate(-0.5968992248062015, -1860)"><text fill="#000000" font-family="Noto Sans JP" font-size="60" font-weight="normal" text-anchor="start" x="0" y="1860">w</text></g><g transform="translate(730.15503875969, 1860) scale(0.5968992248062015, 1) translate(-0.5968992248062015, -1860)"><text fill="#000000" font-family="Noto Sans JP" font-size="60" font-weight="normal" text-anchor="start" x="0" y="1860">s</text></g><g transform="translate(749.6589147286822, 1860) scale(0.5968992248062015, 1) translate(-0.5968992248062015, -1860)"><text fill="#000000" font-family="Noto Sans JP" font-size="60" font-weight="normal" text-anchor="start" x="0" y="1860">o</text></g><g transform="translate(773.3410852713179, 1860) scale(0.5968992248062015, 1) translate(-0.5968992248062015, -1860)"><text fill="#000000" font-family="Noto Sans JP" font-size="60" font-weight="normal" text-anchor="start" x="0" y="1860">n</text></g><g transform="translate(481.85602503912367, 1940) scale(0.48200312989045385, 1) translate(-0.48200312989045385, -1940)"><text fill="#000000" font-family="Noto Sans JP" font-size="60" font-weight="normal" text-anchor="start" x="0" y="1940">S</text></g><g transform="translate(501.17214397496093, 1940) scale(0.48200312989045385, 1) translate(-0.48200312989045385, -1940)"><text fill="#000000" font-family="Noto Sans JP" font-size="60" font-weight="normal" text-anchor="start" x="0" y="1940">e</text></g><g transform="translate(519.5242566510173, 1940) scale(0.48200312989045385, 1) translate(-0.48200312989045385, -1940)"><text fill="#000000" font-family="Noto Sans JP" font-size="60" font-weight="normal" text-anchor="start" x="0" y="1940">v</text></g><g transform="translate(537.8763693270736, 1940) scale(0.48200312989045385, 1) translate(-0.48200312989045385, -1940)"><text fill="#000000" font-family="Noto Sans JP" font-size="60" font-weight="normal" text-anchor="start" x="0" y="1940">e</text></g><g transform="translate(556.2284820031299, 1940) scale(0.48200312989045385, 1) translate(-0.48200312989045385, -1940)"><text fill="#000000" font-family="Noto Sans JP" font-size="60" font-weight="normal" text-anchor="start" x="0" y="1940">n</text></g><g transform="translate(576.0266040688576, 1940) scale(0.48200312989045385, 1) translate(-0.48200312989045385, -1940)"><text fill="#000000" font-family="Noto Sans JP" font-size="60" font-weight="normal" text-anchor="start" x="0" y="1940"> </text></g><g transform="translate(593.414710485133, 1940) scale(0.48200312989045385, 1) translate(-0.48200312989045385, -1940)"><text fill="#000000" font-family="Noto Sans JP" font-size="60" font-weight="normal" text-anchor="start" x="0" y="1940">S</text></g><g transform="translate(612.7308294209703, 1940) scale(0.48200312989045385, 1) translate(-0.48200312989045385, -1940)"><text fill="#000000" font-family="Noto Sans JP" font-size="60" font-weight="normal" text-anchor="start" x="0" y="1940">e</text></g><g transform="translate(631.0829420970266, 1940) scale(0.48200312989045385, 1) translate(-0.48200312989045385, -1940)"><text fill="#000000" font-family="Noto Sans JP" font-size="60" font-weight="normal" text-anchor="start" x="0" y="1940">v</text></g><g transform="translate(649.4350547730829, 1940) scale(0.48200312989045385, 1) translate(-0.48200312989045385, -1940)"><text fill="#000000" font-family="Noto Sans JP" font-size="60" font-weight="normal" text-anchor="start" x="0" y="1940">e</text></g><g transform="translate(667.7871674491392, 1940) scale(0.48200312989045385, 1) translate(-0.48200312989045385, -1940)"><text fill="#000000" font-family="Noto Sans JP" font-size="60" font-weight="normal" text-anchor="start" x="0" y="1940">n</text></g><g transform="translate(687.585289514867, 1940) scale(0.48200312989045385, 1) translate(-0.48200312989045385, -1940)"><text fill="#000000" font-family="Noto Sans JP" font-size="60" font-weight="normal" text-anchor="start" x="0" y="1940"> </text></g><g transform="translate(704.9733959311424, 1940) scale(0.48200312989045385, 1) translate(-0.48200312989045385, -1940)"><text fill="#000000" font-family="Noto Sans JP" font-size="60" font-weight="normal" text-anchor="start" x="0" y="1940">S</text></g><g transform="translate(724.2895148669796, 1940) scale(0.48200312989045385, 1) translate(-0.48200312989045385, -1940)"><text fill="#000000" font-family="Noto Sans JP" font-size="60" font-weight="normal" text-anchor="start" x="0" y="1940">e</text></g><g transform="translate(742.641627543036, 1940) scale(0.48200312989045385, 1) translate(-0.48200312989045385, -1940)"><text fill="#000000" font-family="Noto Sans JP" font-size="60" font-weight="normal" text-anchor="start" x="0" y="1940">v</text></g><g transform="translate(760.9937402190923, 1940) scale(0.48200312989045385, 1) translate(-0.48200312989045385, -1940)"><text fill="#000000" font-family="Noto Sans JP" font-size="60" font-weight="normal" text-anchor="start" x="0" y="1940">e</text></g><g transform="translate(779.3458528951486, 1940) scale(0.48200312989045385, 1) translate(-0.48200312989045385, -1940)"><text fill="#000000" font-family="Noto Sans JP" font-size="60" font-weight="normal" text-anchor="start" x="0" y="1940">n</text></g><g transform="translate(451.2, 2020) scale(0.4, 1) translate(-0.4, -2020)"><text fill="#000000" font-family="Noto Sans JP" font-size="60" font-weight="normal" text-anchor="start" x="0" y="2020">M</text></g><g transform="translate(473.4, 2020) scale(0.4, 1) translate(-0.4, -2020)"><text fill="#000000" font-family="Noto Sans JP" font-size="60" font-weight="normal" text-anchor="start" x="0" y="2020">a</text></g><g transform="translate(488.79999999999995, 2020) scale(0.4, 1) translate(-0.4, -2020)"><text fill="#000000" font-family="Noto Sans JP" font-size="60" font-weight="normal" text-anchor="start" x="0" y="2020">y</text></g><g transform="translate(504.19999999999993, 2020) scale(0.4, 1) translate(-0.4, -2020)"><text fill="#000000" font-family="Noto Sans JP" font-size="60" font-weight="normal" text-anchor="start" x="0" y="2020"> </text></g><g transform="translate(518.8, 2020) scale(0.4, 1) translate(-0.4, -2020)"><text fill="#000000" font-family="Noto Sans JP" font-size="60" font-weight="normal" text-anchor="start" x="0" y="2020">t</text></g><g transform="translate(530.5999999999999, 2020) scale(0.4, 1) translate(-0.4, -2020)"><text fill="#000000" font-family="Noto Sans JP" font-size="60" font-weight="normal" text-anchor="start" x="0" y="2020">h</text></g><g transform="translate(547.1999999999999, 2020) scale(0.4, 1) translate(-0.4, -2020)"><text fill="#000000" font-family="Noto Sans JP" font-size="60" font-weight="normal" text-anchor="start" x="0" y="2020">e</text></g><g transform="translate(562.5999999999999, 2020) scale(0.4, 1) translate(-0.4, -2020)"><text fill="#000000" font-family="Noto Sans JP" font-size="60" font-weight="normal" text-anchor="start" x="0" y="2020"> </text></g><g transform="translate(577.1999999999999, 2020) scale(0.4, 1) translate(-0.4, -2020)"><text fill="#000000" font-family="Noto Sans JP" font-size="60" font-weight="normal" text-anchor="start" x="0" y="2020">f</text></g><g transform="translate(588.5999999999999, 2020) scale(0.4, 1) translate(-0.4, -2020)"><text fill="#000000" font-family="Noto Sans JP" font-size="60" font-weight="normal" text-anchor="start" x="0" y="2020">o</text></g><g transform="translate(604.8, 2020) scale(0.4, 1) translate(-0.4, -2020)"><text fill="#000000" font-family="Noto Sans JP" font-size="60" font-weight="normal" text-anchor="start" x="0" y="2020">r</text></g><g transform="translate(617.0, 2020) scale(0.4, 1) translate(-0.4, -2020)"><text fill="#000000" font-family="Noto Sans JP" font-size="60" font-weight="normal" text-anchor="start" x="0" y="2020">c</text></g><g transform="translate(630.8, 2020) scale(0.4, 1) translate(-0.4, -2020)"><text fill="#000000" font-family="Noto Sans JP" font-size="60" font-weight="normal" text-anchor="start" x="0" y="2020">e</text></g><g transform="translate(646.1999999999999, 2020) scale(0.4, 1) translate(-0.4, -2020)"><text fill="#000000" font-family="Noto Sans JP" font-size="60" font-weight="normal" text-anchor="start" x="0" y="2020"> </text></g><g transform="translate(660.8, 2020) scale(0.4, 1) translate(-0.4, -2020)"><text fill="#000000" font-family="Noto Sans JP" font-size="60" font-weight="normal" text-anchor="start" x="0" y="2020">b</text></g><g transform="translate(677.4, 2020) scale(0.4, 1) translate(-0.4, -2020)"><text fill="#000000" font-family="Noto Sans JP" font-size="60" font-weight="normal" text-anchor="start" x="0" y="2020">e</text></g><g transform="translate(692.8, 2020) scale(0.4, 1) translate(-0.4, -2020)"><text fill="#000000" font-family="Noto Sans JP" font-size="60" font-weight="normal" text-anchor="start" x="0" y="2020"> </text></g><g transform="translate(707.4, 2020) scale(0.4, 1) translate(-0.4, -2020)"><text fill="#000000" font-family="Noto Sans JP" font-size="60" font-weight="normal" text-anchor="start" x="0" y="2020">w</text></g><g transform="translate(730.0, 2020) scale(0.4, 1) translate(-0.4, -2020)"><text fill="#000000" font-family="Noto Sans JP" font-size="60" font-weight="normal" text-anchor="start" x="0" y="2020">i</text></g><g transform="translate(738.6, 2020) scale(0.4, 1) translate(-0.4, -2020)"><text fill="#000000" font-family="Noto Sans JP" font-size="60" font-weight="normal" text-anchor="start" x="0" y="2020">t</text></g><g transform="translate(750.4, 2020) scale(0.4, 1) translate(-0.4, -2020)"><text fill="#000000" font-family="Noto Sans JP" font-size="60" font-weight="normal" text-anchor="start" x="0" y="2020">h</text></g><g transform="translate(767.0, 2020) scale(0.4, 1) translate(-0.4, -2020)"><text fill="#000000" font-family="Noto Sans JP" font-size="60" font-weight="normal" text-anchor="start" x="0" y="2020"> </text></g><g transform="translate(781.6, 2020) scale(0.4, 1) translate(-0.4, -2020)"><text fill="#000000" font-family="Noto Sans JP" font-size="60" font-weight="normal" text-anchor="start" x="0" y="2020">y</text></g><g transform="translate(797.0, 2020) scale(0.4, 1) translate(-0.4, -2020)"><text fill="#000000" font-family="Noto Sans JP" font-size="60" font-weight="normal" text-anchor="start" x="0" y="2020">o</text></g><g transform="translate(813.2, 2020) scale(0.4, 1) translate(-0.4, -2020)"><text fill="#000000" font-family="Noto Sans JP" font-size="60" font-weight="normal" text-anchor="start" x="0" y="2020">u</text></g><g transform="translate(482.8173734610123, 2100) scale(0.4213406292749658, 1) translate(-0.4213406292749658, -2100)"><text fill="#000000" font-family="Noto Sans JP" font-size="60" font-weight="normal" text-anchor="start" x="0" y="2100">ブ</text></g><g transform="translate(509.0978112175103, 2100) scale(0.4213406292749658, 1) translate(-0.4213406292749658, -2100)"><text fill="#000000" font-family="Noto Sans JP" font-size="60" font-weight="normal" text-anchor="start" x="0" y="2100">ー</text></g><g transform="translate(535.3782489740082, 2100) scale(0.4213406292749658, 1) translate(-0.4213406292749658, -2100)"><text fill="#000000" font-family="Noto Sans JP" font-size="60" font-weight="normal" text-anchor="start" x="0" y="2100">ス</text></g><g transform="translate(561.6586867305061, 2100) scale(0.4213406292749658, 1) translate(-0.4213406292749658, -2100)"><text fill="#000000" font-family="Noto Sans JP" font-size="60" font-weight="normal" text-anchor="start" x="0" y="2100">ケ</text></g><g transform="translate(587.939124487004, 2100) scale(0.4213406292749658, 1) translate(-0.4213406292749658, -2100)"><text fill="#000000" font-family="Noto Sans JP" font-size="60" font-weight="normal" text-anchor="start" x="0" y="2100">・</text></g><g transform="translate(614.219562243502, 2100) scale(0.4213406292749658, 1) translate(-0.4213406292749658, -2100)"><text fill="#000000" font-family="Noto Sans JP" font-size="60" font-weight="normal" text-anchor="start" x="0" y="2100">サ</text></g><g transform="translate(640.4999999999999, 2100) scale(0.4213406292749658, 1) translate(-0.4213406292749658, -2100)"><text fill="#000000" font-family="Noto Sans JP" font-size="60" font-weight="normal" text-anchor="start" x="0" y="2100">マ</text></g><g transform="translate(666.7804377564978, 2100) scale(0.4213406292749658, 1) translate(-0.4213406292749658, -2100)"><text fill="#000000" font-family="Noto Sans JP" font-size="60" font-weight="normal" text-anchor="start" x="0" y="2100">ン</text></g><g transform="translate(693.0608755129957, 2100) scale(0.4213406292749658, 1) translate(-0.4213406292749658, -2100)"><text fill="#000000" font-family="Noto Sans JP" font-size="60" font-weight="normal" text-anchor="start" x="0" y="2100">サ</text></g><g transform="translate(719.3413132694936, 2100) scale(0.4213406292749658, 1) translate(-0.4213406292749658, -2100)"><text fill="#000000" font-family="Noto Sans JP" font-size="60" font-weight="normal" text-anchor="start" x="0" y="2100">オ</text></g><g transform="translate(745.6217510259916, 2100) scale(0.4213406292749658, 1) translate(-0.4213406292749658, -2100)"><text fill="#000000" font-family="Noto Sans JP" font-size="60" font-weight="normal" text-anchor="start" x="0" y="2100">バ</text></g><g transform="translate(771.9021887824895, 2100) scale(0.4213406292749658, 1) translate(-0.4213406292749658, -2100)"><text fill="#000000" font-family="Noto Sans JP" font-size="60" font-weight="normal" text-anchor="start" x="0" y="2100">タ</text></g><g transform="translate(403.0, 2180) scale(0.4, 1) translate(-0.4, -2180)"><text fill="#000000" font-family="Noto Sans JP" font-size="60" font-weight="normal" text-anchor="start" x="0" y="2180">寿</text></g><g transform="translate(428.0, 2180) scale(0.4, 1) translate(-0.4, -2180)"><text fill="#000000" font-family="Noto Sans JP" font-size="60" font-weight="normal" text-anchor="start" x="0" y="2180">限</text></g><g transform="translate(453.0, 2180) scale(0.4, 1) translate(-0.4, -2180)"><text fill="#000000" font-family="Noto Sans JP" font-size="60" font-weight="normal" text-anchor="start" x="0" y="2180">無</text></g><g transform="translate(478.0, 2180) scale(0.4, 1) translate(-0.4, -2180)"><text fill="#000000" font-family="Noto Sans JP" font-size="60" font-weight="normal" text-anchor="start" x="0" y="2180">寿</text></g><g transform="translate(503.0, 2180) scale(0.4, 1) translate(-0.4, -2180)"><text fill="#000000" font-family="Noto Sans JP" font-size="60" font-weight="normal" text-anchor="start" x="0" y="2180">限</text></g><g transform="translate(528.0, 2180) scale(0.4, 1) translate(-0.4, -2180)"><text fill="#000000" font-family="Noto Sans JP" font-size="60" font-weight="normal" text-anchor="start" x="0" y="2180">無</text></g><g transform="translate(553.0, 2180) scale(0.4, 1) translate(-0.4, -2180)"><text fill="#000000" font-family="Noto Sans JP" font-size="60" font-weight="normal" text-anchor="start" x="0" y="2180">五</text></g><g transform="translate(578.0, 2180) scale(0.4, 1) translate(-0.4, -2180)"><text fill="#000000" font-family="Noto Sans JP" font-size="60" font-weight="normal" text-anchor="start" x="0" y="2180">劫</text></g><g transform="translate(603.0, 2180) scale(0.4, 1) translate(-0.4, -2180)"><text fill="#000000" font-family="Noto Sans JP" font-size="60" font-weight="normal" text-anchor="start" x="0" y="2180">の</text></g><g transform="translate(628.0, 2180) scale(0.4, 1) translate(-0.4, -2180)"><text fill="#000000" font-family="Noto Sans JP" font-size="60" font-weight="normal" text-anchor="start" x="0" y="2180">擦</text></g><g transform="translate(653.0, 2180) scale(0.4, 1) translate(-0.4, -2180)"><text fill="#000000" font-family="Noto Sans JP" font-size="60" font-weight="normal" text-anchor="start" x="0" y="2180">り</text></g><g transform="translate(678.0, 2180) scale(0.4, 1) translate(-0.4, -2180)"><text fill="#000000" font-family="Noto Sans JP" font-size="60" font-weight="normal" text-anchor="start" x="0" y="2180">切</text></g><g transform="translate(703.0, 2180) scale(0.4, 1) translate(-0.4, -2180)"><text fill="#000000" font-family="Noto Sans JP" font-size="60" font-weight="normal" text-anchor="start" x="0" y="2180">れ</text></g><g transform="translate(728.0, 2180) scale(0.4, 1) translate(-0.4, -2180)"><text fill="#000000" font-family="Noto Sans JP" font-size="60" font-weight="normal" text-anchor="start" x="0" y="2180">海</text></g><g transform="translate(753.0, 2180) scale(0.4, 1) translate(-0.4, -2180)"><text fill="#000000" font-family="Noto Sans JP" font-size="60" font-weight="normal" text-anchor="start" x="0" y="2180">砂</text></g><g transform="translate(778.0, 2180) scale(0.4, 1) translate(-0.4, -2180)"><text fill="#000000" font-family="Noto Sans JP" font-size="60" font-weight="normal" text-anchor="start" x="0" y="2180">利</text></g><g transform="translate(803.0, 2180) scale(0.4, 1) translate(-0.4, -2180)"><text fill="#000000" font-family="Noto Sans JP" font-size="60" font-weight="normal" text-anchor="start" x="0" y="2180">水</text></g><g transform="translate(828.0, 2180) scale(0.4, 1) translate(-0.4, -2180)"><text fill="#000000" font-family="Noto Sans JP" font-size="60" font-weight="normal" text-anchor="start" x="0" y="2180">魚</text></g><g transform="translate(853.0, 2180) scale(0.4, 1) translate(-0.4, -2180)"><text fill="#000000" font-family="Noto Sans JP" font-size="60" font-weight="normal" text-anchor="start" x="0" y="2180">の</text></g></svg>